<svg fill="none" xmlns="http://www.w3.org/2000/svg" viewBox="0 0 765 160"><path d="M199.029 57.651c-12.126 0-20.265 5.49-25.415 13.31V29.868h-24.418v116.453h24.418v-10.98c5.15 7.653 13.289 13.143 25.415 13.143 22.093 0 38.205-19.797 38.205-45.417s-16.112-45.416-38.205-45.416Zm-6.312 69.207c-11.462 0-19.435-8.485-19.435-23.79s7.973-23.623 19.435-23.623c11.461 0 19.435 8.318 19.435 23.623 0 15.305-7.974 23.79-19.435 23.79Zm96.255.832c-9.801 0-16.445-5.49-17.774-19.132h58.637c.166-1.663.166-3.826.166-5.49 0-26.95-16.777-45.416-41.195-45.416-25.083 0-42.524 18.632-42.524 45.416 0 27.283 17.773 45.417 43.853 45.417 18.272 0 33.554-9.483 39.866-28.781l-20.598-7.32c-4.153 10.98-10.797 15.306-20.431 15.306Zm-.166-50.574c8.139 0 14.119 4.658 16.444 15.139h-33.387c2.159-10.315 7.807-15.14 16.943-15.14ZM379.6 57.651c-17.109 0-32.391 6.821-38.87 25.62l20.266 8.817c3.156-7.985 8.969-12.643 17.607-12.643 10.797 0 15.947 5.157 15.947 14.806v6.987c-4.818-4.492-11.96-6.987-20.93-6.987-22.093 0-34.883 11.146-34.883 27.117 0 16.636 12.126 27.117 32.723 27.117 10.964 0 19.601-3.494 24.917-10.481v8.318h22.591v-54.4c0-23.124-17.94-34.27-39.368-34.27Zm-.166 73.366c-9.469 0-15.615-3.66-15.615-9.982 0-6.321 6.146-9.981 15.615-9.981 9.468 0 15.614 3.66 15.614 9.981 0 6.322-6.146 9.982-15.614 9.982Zm101.622-73.366c-9.468 0-17.608 3.66-22.591 12.644V59.981h-24.418v86.341h24.418V95.748c0-10.98 6.478-16.802 15.282-16.802 7.143 0 12.791 5.323 12.791 15.305v52.071h24.418V89.926c0-19.465-12.791-32.275-29.9-32.275Zm96.01 2.329h-18.771V31.367l-24.584 12.81v15.805h-15.614v19.131h15.614v35.269c0 19.963 11.462 31.941 30.896 31.941h12.459v-20.961h-9.303c-6.312 0-9.468-3.993-9.468-11.978v-34.27h18.771V59.98Zm49.314 67.71c-9.8 0-16.444-5.49-17.773-19.132h58.636c.166-1.663.166-3.826.166-5.49 0-26.95-16.777-45.416-41.195-45.416-25.082 0-42.524 18.632-42.524 45.416 0 27.283 17.774 45.417 43.853 45.417 18.272 0 33.554-9.483 39.866-28.781l-20.597-7.32c-4.153 10.98-10.797 15.306-20.432 15.306Zm-.166-50.574c8.14 0 14.12 4.658 16.445 15.139h-33.388c2.16-10.315 7.807-15.14 16.943-15.14Zm113.884-6.156c-5.15-7.819-13.289-13.308-25.415-13.308-22.093 0-38.205 19.796-38.205 45.416 0 25.62 16.112 45.417 38.205 45.417 12.126 0 20.265-5.49 25.415-13.143v10.98h24.418V29.869h-24.418V70.96Zm-19.103 55.898c-11.462 0-19.435-8.485-19.435-23.79s7.973-23.623 19.435-23.623 19.435 8.318 19.435 23.623c0 15.305-7.973 23.79-19.435 23.79Z" fill="#111"/><path d="M87.41 156.602H3.626v-94.22l12.056-33.705V6.27l80.925-2.68v24.13L87.41 62.381v94.22Z" fill="#FDC52E"/><path d="m107.845 153.346-10.218-3.064-10.217 6.128V62.381l9.196-34.853V3.398l1.839 2.107c.817.957 1.226 1.915 1.226 3.064V30.4l7.97 32.364c.204 1.15.408 2.298.408 3.447v87.135h-.204Z" fill="#EA5B50"/><path fill-rule="evenodd" clip-rule="evenodd" d="M95.387.198c1.443-.483 3.055-.063 4.025 1.049l1.839 2.106.025.03c1.244 1.456 2.021 3.142 2.021 5.186v21.444l7.877 31.988c.017.068.031.136.043.205l.018.1c.194 1.085.441 2.472.441 3.906v87.134c0 1.877-1.624 3.398-3.627 3.398h-.204c-.375 0-.748-.054-1.105-.161l-8.594-2.577-8.781 5.266a3.835 3.835 0 0 1-3.696.119c-1.162-.596-1.885-1.739-1.885-2.981V62.382c0-.275.035-.55.106-.816l9.09-34.452V3.398c0-1.436.963-2.717 2.407-3.2Zm2.317 37.326-6.668 25.272V150.2l4.637-2.781a3.832 3.832 0 0 1 3.06-.374l5.69 1.706v-82.54c0-.797-.138-1.64-.341-2.786l-6.378-25.902ZM84.921 25.91c.05 1.25-.99 2.302-2.325 2.35l-65.188 2.297c-1.334.048-2.456-.928-2.506-2.178-.05-1.25.99-2.302 2.325-2.35l65.188-2.297c1.334-.047 2.456.928 2.506 2.178Z" fill="#111"/><path d="m74.535 124.429-57.218.766V93.597l57.218-.766v31.598Z" fill="#fff"/><path fill-rule="evenodd" clip-rule="evenodd" d="M76.233 91.217a2.2 2.2 0 0 1 .72 1.613v31.599c0 1.238-1.061 2.247-2.383 2.265l-57.218.766a2.503 2.503 0 0 1-1.732-.652 2.197 2.197 0 0 1-.72-1.613V93.596c0-1.238 1.061-2.247 2.383-2.265l57.218-.766a2.505 2.505 0 0 1 1.732.652ZM19.735 95.83v27.067l52.383-.702V95.129l-52.383.7Zm76.448-30.926c1.335-.007 2.423 1.002 2.43 2.253l.41 68.75c.007 1.251-1.07 2.271-2.404 2.278-1.336.007-2.424-1.002-2.431-2.253l-.41-68.75c-.007-1.251 1.07-2.271 2.405-2.278Z" fill="#111"/><path fill-rule="evenodd" clip-rule="evenodd" d="M98.916 1.142a3.299 3.299 0 0 1 1.112 2.448v24.13c0 .27-.035.539-.103.8l-8.37 32.332a19.14 19.14 0 0 0-.519 4.402v91.348c0 1.877-1.623 3.398-3.626 3.398H3.626C1.624 160 0 158.479 0 156.602V66.02c0-2.682.478-5.343 1.412-7.968l10.645-29.926V6.463c0-1.827 1.54-3.327 3.488-3.396L96.264.194a3.766 3.766 0 0 1 2.653.948ZM19.31 9.734v18.943c0 .365-.063.728-.186 1.075L8.293 60.2c-.701 1.97-1.04 3.906-1.04 5.82v87.183h76.53v-87.95a25.534 25.534 0 0 1 .716-5.971l8.276-31.97V7.12L19.31 9.734Z" fill="#111"/></svg>